<?xml version="1.0" encoding="UTF-8" standalone="no"?>
<svg
   xmlns:dc="http://purl.org/dc/elements/1.1/"
   xmlns:cc="http://creativecommons.org/ns#"
   xmlns:rdf="http://www.w3.org/1999/02/22-rdf-syntax-ns#"
   xmlns:svg="http://www.w3.org/2000/svg"
   xmlns="http://www.w3.org/2000/svg"
   xmlns:sodipodi="http://sodipodi.sourceforge.net/DTD/sodipodi-0.dtd"
   xmlns:inkscape="http://www.inkscape.org/namespaces/inkscape"
   version="1.1"
   id="svg2"
   xml:space="preserve"
   width="361.33334"
   height="365.33334"
   viewBox="0 0 361.33334 365.33334"
   sodipodi:docname="bmw.ai"><metadata
     id="metadata8"><rdf:RDF><cc:Work
         rdf:about=""><dc:format>image/svg+xml</dc:format><dc:type
           rdf:resource="http://purl.org/dc/dcmitype/StillImage" /></cc:Work></rdf:RDF></metadata><defs
     id="defs6"><clipPath
       clipPathUnits="userSpaceOnUse"
       id="clipPath18"><path
         d="M 0,274 H 271 V 0 H 0 Z"
         id="path16" /></clipPath></defs><sodipodi:namedview
     pagecolor="#ffffff"
     bordercolor="#666666"
     borderopacity="1"
     objecttolerance="10"
     gridtolerance="10"
     guidetolerance="10"
     inkscape:pageopacity="0"
     inkscape:pageshadow="2"
     inkscape:window-width="640"
     inkscape:window-height="480"
     id="namedview4" /><g
     id="g10"
     inkscape:groupmode="layer"
     inkscape:label="bmw"
     transform="matrix(1.3333333,0,0,-1.3333333,0,365.33333)"><g
       id="g12"><g
         id="g14"
         clip-path="url(#clipPath18)"><g
           id="g20"
           transform="translate(254.5908,133.9019)"><path
             d="m 0,0 c 0,66.007 -53.508,119.516 -119.516,119.516 -66.007,0 -119.521,-53.509 -119.521,-119.516 0,-66.007 53.514,-119.514 119.521,-119.514 C -53.508,-119.514 0,-66.007 0,0"
             style="fill:#ffffff;fill-opacity:1;fill-rule:evenodd;stroke:none"
             id="path22" /></g><g
           id="g24"
           transform="translate(254.5908,133.9019)"><path
             d="m 0,0 c 0,66.007 -53.508,119.516 -119.516,119.516 -66.007,0 -119.521,-53.509 -119.521,-119.516 0,-66.007 53.514,-119.514 119.521,-119.514 C -53.508,-119.514 0,-66.007 0,0 Z"
             style="fill:none;stroke:#221f1f;stroke-width:2;stroke-linecap:round;stroke-linejoin:round;stroke-miterlimit:2.613;stroke-dasharray:none;stroke-opacity:1"
             id="path26" /></g><g
           id="g28"
           transform="translate(251.707,133.9019)"><path
             d="m 0,0 c 0,64.417 -52.219,116.634 -116.632,116.634 -64.416,0 -116.637,-52.217 -116.637,-116.634 0,-64.414 52.221,-116.632 116.637,-116.632 C -52.219,-116.632 0,-64.414 0,0"
             style="fill:#000000;fill-opacity:1;fill-rule:evenodd;stroke:none"
             id="path30" /></g><g
           id="g32"
           transform="translate(75.6689,193.8384)"><path
             d="m 0,0 c -0.868,-1.084 -1.733,-2.167 -2.599,-3.25 -2.381,-2.975 -4.768,-5.951 -7.15,-8.926 -0.01,-0.012 -0.074,-0.113 -0.091,-0.1 -0.122,0.098 -0.245,0.195 -0.368,0.294 -0.649,0.52 -1.294,1.037 -1.943,1.556 -1.124,0.9 -2.248,1.801 -3.371,2.698 2.161,2.7 4.321,5.399 6.482,8.099 1.053,1.315 2.105,2.631 3.157,3.944 0.754,0.943 1.705,1.611 2.957,1.651 1.502,0.049 2.81,-0.828 3.448,-2.158 C 1.056,2.517 0.876,1.094 0,0 m -20.266,-3.929 c -1.37,1.098 -2.743,2.197 -4.113,3.293 -0.524,0.419 -1.045,0.839 -1.57,1.257 -0.013,0.013 0.537,0.689 0.577,0.733 2.554,3.191 5.11,6.385 7.664,9.575 0.673,0.842 1.277,1.739 2.312,2.167 1.413,0.582 3.072,0.209 4.098,-0.918 0.827,-0.914 1.1,-2.156 0.834,-3.345 -0.305,-1.057 -1.053,-1.835 -1.726,-2.674 -1.344,-1.679 -2.69,-3.361 -4.034,-5.04 -1.347,-1.684 -2.694,-3.368 -4.042,-5.048 M 8.931,5.622 c -0.446,3.115 -2.323,5.732 -5.202,7.042 -2.888,1.312 -6.245,0.818 -8.791,-0.984 -0.208,-0.149 -0.4,-0.326 -0.596,-0.485 0.421,1.442 0.551,2.895 0.191,4.372 -0.349,1.439 -1.106,2.768 -2.167,3.803 -2.16,2.107 -5.436,2.8 -8.268,1.741 -1.332,-0.497 -2.519,-1.352 -3.409,-2.464 -0.505,-0.63 -1.011,-1.263 -1.516,-1.897 -2.645,-3.301 -5.285,-6.6 -7.926,-9.901 -2.271,-2.833 -4.539,-5.666 -6.807,-8.499 -0.15,-0.187 -0.297,-0.375 -0.448,-0.562 -0.012,-0.011 0.291,-0.241 0.312,-0.257 0.881,-0.706 1.761,-1.409 2.64,-2.115 3.329,-2.665 6.659,-5.33 9.989,-7.997 3.292,-2.639 6.59,-5.278 9.889,-7.919 0.841,-0.671 1.678,-1.343 2.522,-2.016 0.034,-0.03 0.23,-0.226 0.265,-0.185 0.166,0.211 0.333,0.419 0.498,0.625 2.263,2.829 4.526,5.654 6.788,8.479 2.712,3.386 5.423,6.772 8.135,10.159 1.4,1.748 2.947,3.396 3.612,5.588 0.341,1.128 0.397,2.307 0.289,3.472"
             style="fill:#ffffff;fill-opacity:1;fill-rule:evenodd;stroke:none"
             id="path34" /></g><g
           id="g36"
           transform="translate(207.9707,133.9019)"><path
             d="m 0,0 c 0,40.261 -32.638,72.896 -72.896,72.896 -40.26,0 -72.898,-32.635 -72.898,-72.896 0,-40.259 32.638,-72.896 72.898,-72.896 C -32.638,-72.896 0,-40.259 0,0"
             style="fill:#ffffff;fill-opacity:1;fill-rule:evenodd;stroke:none"
             id="path38" /></g><g
           id="g40"
           transform="translate(135.0723,203.104)"><path
             d="M 0,0 C -37.777,-0.981 -68.222,-31.425 -69.2,-69.201 H 0 Z"
             style="fill:#0499db;fill-opacity:1;fill-rule:evenodd;stroke:none"
             id="path42" /></g><g
           id="g44"
           transform="translate(135.0723,64.6982)"><path
             d="M 0,0 C 37.782,0.983 68.223,31.426 69.206,69.205 H 0 Z"
             style="fill:#0499db;fill-opacity:1;fill-rule:evenodd;stroke:none"
             id="path46" /></g><g
           id="g48"
           transform="translate(212.8359,213.6738)"><path
             d="m 0,0 -6.075,5.643 -19.722,-25.909 6.073,-5.639 21.629,9.919 -14.413,-18.932 4.179,-7.164 29.592,13.581 -4.175,7.161 -17.079,-7.835 12.14,15.945 -5.314,6.638 -18.215,-8.356 z"
             style="fill:#ffffff;fill-opacity:1;fill-rule:evenodd;stroke:none"
             id="path50" /></g><g
           id="g52"
           transform="translate(124.3438,233.5303)"><path
             d="m 0,0 7.692,-21.87 h 6.076 L 21.46,0 22.271,-21.87 30.777,-23.084 29.561,9.718 18.627,10.935 10.731,-12.15 2.831,10.935 -8.104,9.718 -9.317,-23.084 -0.81,-21.87 Z"
             style="fill:#ffffff;fill-opacity:1;fill-rule:evenodd;stroke:none"
             id="path54" /></g></g></g></g></svg>
